#!OML:ASF E:\VariousWalksJay\Project 1\Capture day 1\Session 1\Actor2.ASF
:FULLY-SPECIFIED
:DEGREES
954
root 3.9197 15.6522 -5.57533 191.194 -3.13006 -180.771
lowerback 14.903 -1.65262 9.19309
upperback 18.74 -6.91935 0.623714
thorax 12.0451 -4.23817 -4.46085
lowerneck 3.54697 -2.28688 -1.75466
upperneck -7.42197 -2.37634 8.54857
head -2.90456 -1.3452 3.22343
rclavicle -6.41081e-014 7.66315e-014
rhumerus 0.0966751 14.1291 -64.7499
rradius 77.8047
rwrist -3.81722
rhand -8.57603 -10.7954
rfingers 7.12502
rthumb 17.3545 -40.0406
lclavicle -6.41081e-014 7.66315e-014
lhumerus 10.5741 -32.4634 61.6135
lradius 56.4449
lwrist 10.4095
lhand -10.439 -15.7991
lfingers 7.12502
lthumb 15.5609 13.5949
rfemur -54.936 -4.41305 23.3877
rtibia 69.5173
rfoot -23.8074 -13.82
rtoes -6.28576
lfemur -11.0063 17.1451 -10.5341
ltibia 67.8747
lfoot -22.1317 12.497
ltoes -22.9691
955
root 3.93989 15.6051 -5.71919 191.153 -3.71191 -181.277
lowerback 15.1023 -1.55041 9.20568
upperback 18.8539 -6.88067 1.05696
thorax 12.1561 -4.27511 -3.99212
lowerneck 3.95341 -2.36655 -2.07949
upperneck -7.27177 -2.51929 8.7228
head -2.91888 -1.42678 3.35641
rclavicle 1.68967e-014 -5.14852e-014
rhumerus 0.606219 13.6037 -64.3342
rradius 77.3685
rwrist -3.26199
rhand -8.89855 -10.8192
rfingers 7.12502
rthumb 17.0441 -40.0915
lclavicle 1.68967e-014 -5.14852e-014
lhumerus 11.327 -32.2514 61.6385
lradius 56.1512
lwrist 10.5263
lhand -11.0688 -15.7609
lfingers 7.12502
lthumb 14.9542 13.6792
rfemur -54.844 -5.17755 23.0408
rtibia 70.6784
rfoot -24.7634 -13.7947
rtoes -6.57412
lfemur -12.6941 17.336 -11.0244
ltibia 70.2602
lfoot -21.9675 12.9243
ltoes -21.6082
956
root 3.97145 15.5561 -5.86263 191.12 -4.08771 -181.619
lowerback 15.3082 -1.31806 9.11629
upperback 19.0471 -6.74211 1.55236
thorax 12.3955 -4.29326 -3.41786
lowerneck 3.99362 -2.43691 -2.31501
upperneck -7.07297 -2.65401 8.775
head -2.84822 -1.49248 3.41848
rclavicle 4.05521e-014 -1.11319e-014
rhumerus 1.31716 13.1133 -63.9084
rradius 76.9147
rwrist -2.63737
rhand -9.03523 -10.7944
rfingers 7.12502
rthumb 16.9125 -40.078
lclavicle 4.05521e-014 -1.11319e-014
lhumerus 12.1304 -31.8379 61.6024
lradius 55.9588
lwrist 10.6812
lhand -11.4261 -15.6324
lfingers 7.12502
lthumb 14.61 13.833
rfemur -54.765 -5.57442 22.8736
rtibia 71.7687
rfoot -25.6086 -13.9909
rtoes -7.29724
lfemur -14.431 17.8013 -11.3257
ltibia 72.5573
lfoot -22.1536 12.8782
ltoes -20.9886
957
root 3.99326 15.513 -6.00124 191.15 -4.58333 -182.121
lowerback 15.4908 -1.18401 9.09546
upperback 19.153 -6.66367 1.96586
thorax 12.5095 -4.315 -2.95481
lowerneck 4.34512 -2.52233 -2.58346
upperneck -6.96165 -2.81046 8.82307
head -2.86438 -1.57804 3.49786
rclavicle -2.14687e-014 1.03368e-014
rhumerus 1.76074 12.6655 -63.5461
rradius 76.6298
rwrist -2.10042
rhand -9.10712 -10.646
rfingers 7.12502
rthumb 16.8433 -39.9355
lclavicle -2.14687e-014 1.03368e-014
lhumerus 12.6998 -31.4891 61.6291
lradius 55.9075
lwrist 10.7755
lhand -11.7479 -15.5601
lfingers 7.12502
lthumb 14.2999 13.9275
rfemur -54.7014 -6.26238 22.5561
rtibia 72.8026
rfoot -26.457 -14.1104
rtoes -8.02623
lfemur -16.3151 18.0813 -11.9663
ltibia 74.6886
lfoot -22.3042 12.8522
ltoes -20.7482
958
root 4.00979 15.4732 -6.13552 191.203 -5.11233 -182.65
lowerback 15.6453 -1.07837 9.15055
upperback 19.2694 -6.61948 2.33368
thorax 12.6422 -4.33852 -2.58353
lowerneck 4.59375 -2.62766 -2.86297
upperneck -6.84982 -2.98675 8.9482
head -2.8584 -1.67195 3.60449
rclavicle 2.06736e-014 -2.22639e-014
rhumerus 2.28397 12.3016 -63.1349
rradius 76.3108
rwrist -1.74563
rhand -9.08442 -10.7471
rfingers 7.12502
rthumb 16.8652 -40.0347
lclavicle 2.06736e-014 -2.22639e-014
lhumerus 13.1875 -31.1172 61.5756
lradius 56.0572
lwrist 10.9048
lhand -11.8938 -15.5158
lfingers 7.12502
lthumb 14.1593 13.9817
rfemur -54.5976 -6.99492 22.1859
rtibia 73.7463
rfoot -27.3117 -14.1729
rtoes -8.43415
lfemur -18.2775 18.3153 -12.7508
ltibia 76.6775
lfoot -22.2406 12.8483
ltoes -20.1376
959
root 4.03176 15.4358 -6.27167 191.268 -5.55782 -183.145
lowerback 15.8163 -0.945718 9.09275
upperback 19.381 -6.54718 2.6979
thorax 12.7645 -4.3653 -2.15416
lowerneck 4.67512 -2.74176 -2.92756
upperneck -6.61196 -3.18376 8.85574
head -2.77955 -1.7704 3.5853
rclavicle -3.73715e-014 -3.4191e-014
rhumerus 2.79329 12.0851 -62.7899
rradius 76.0291
rwrist -1.47482
rhand -9.11987 -10.7254
rfingers 7.12502
rthumb 16.831 -40.016
lclavicle -3.73715e-014 -3.4191e-014
lhumerus 13.4943 -30.6307 61.5642
lradius 56.2891
lwrist 10.9414
lhand -11.8004 -15.4604
lfingers 7.12502
lthumb 14.2494 14.0307
rfemur -54.4557 -7.56899 21.8527
rtibia 74.5939
rfoot -28.1538 -14.3149
rtoes -8.88012
lfemur -20.2618 18.6315 -13.5431
ltibia 78.4911
lfoot -22.54 12.6569
ltoes -20.2779
960
root 4.05745 15.4016 -6.41028 191.282 -5.99426 -183.507
lowerback 15.9854 -0.781517 9.16199
upperback 19.5186 -6.4408 3.06363
thorax 12.9249 -4.36256 -1.79627
lowerneck 4.77777 -2.8687 -3.03452
upperneck -6.44607 -3.38498 8.87701
head -2.72756 -1.87347 3.61709
rclavicle -1.59028e-015 1.98785e-015
rhumerus 3.30036 11.8672 -62.4468
rradius 75.7321
rwrist -1.27766
rhand -9.15244 -10.8652
rfingers 7.12502
rthumb 16.7997 -40.1585
lclavicle -1.59028e-015 1.98785e-015
lhumerus 13.7699 -30.2698 61.4334
lradius 56.6607
lwrist 10.876
lhand -12.0148 -15.4256
lfingers 7.12502
lthumb 14.0427 14.08
rfemur -54.1904 -8.0366 21.6624
rtibia 75.3502
rfoot -29.0035 -14.536
rtoes -9.31513
lfemur -22.2368 19.0024 -14.2189
ltibia 80.1445
lfoot -22.8979 12.4469
ltoes -21.1639
